# xmcd
#
# Track frame offsets: 
#        183
#        17570
#        33975
#        53585
#        71503
#        93178
#        112498
#        129315
#        144975
#        163373
#
# Disc length: 2387 seconds
#
# Revision: 2
# Processed by: cddbd v1.5.2PL0 Copyright (c) Steve Scherf et al.
# Submitted via: ExactAudioCopy v0.95b4
#
DISCID=8409510a
DTITLE=John Cougar Mellencamp - The Lonesome Jubilee
DYEAR=1987
DGENRE=Rock
TTITLE0=Paper In Fire
TTITLE1=Down And Out In Paradise
TTITLE2=Check It Out
TTITLE3=The Real Life
TTITLE4=Cherry Bomb
TTITLE5=We Are The People
TTITLE6=Empty Hands
TTITLE7=Hard Times For An Honest Man
TTITLE8=Hotdogs And Hamburgers
TTITLE9=Rooty Toot Toot
EXTD=JOHN 'COUGAR' MELLENCAMP - THE LONESOME JUBILEE\n\nPolygram Recor
EXTD=ds - Mercury\n832 465-2 Q-1
EXTT0=
EXTT1=
EXTT2=
EXTT3=
EXTT4=
EXTT5=
EXTT6=
EXTT7=
EXTT8=
EXTT9=
PLAYORDER=
